<?xml version="1.0" standalone="no"?>
<!DOCTYPE svg PUBLIC "-//W3C//DTD SVG 20010904//EN"
 "http://www.w3.org/TR/2001/REC-SVG-20010904/DTD/svg10.dtd">
<svg version="1.0" xmlns="http://www.w3.org/2000/svg"
 width="200.000000pt" height="30.000000pt" viewBox="0 0 200.000000 30.000000"
 preserveAspectRatio="xMidYMid meet">

<g transform="translate(0.000000,30.000000) scale(0.100000,-0.100000)"
fill="#000000" stroke="none">
<path d="M76 244 l-68 -46 28 -18 c15 -11 33 -16 38 -13 51 30 56 36 44 50 -9
11 -9 16 3 24 8 5 19 9 24 9 10 0 85 -48 85 -54 0 -2 -29 -23 -65 -46 -57 -37
-74 -60 -44 -60 5 0 46 24 90 54 l81 54 -61 41 c-33 23 -66 44 -73 46 -7 3
-44 -16 -82 -41z"/>
<path d="M260 270 c-23 -17 -23 -19 -7 -26 22 -8 40 7 35 29 -3 14 -6 14 -28
-3z"/>
<path d="M360 145 l0 -95 29 0 c89 0 130 35 98 83 -11 16 -12 28 -6 34 6 6 9
23 7 39 -3 28 -5 29 -65 32 l-63 3 0 -96z m87 59 c7 -19 -20 -49 -36 -40 -6 4
-11 18 -11 32 0 17 5 24 20 24 11 0 23 -7 27 -16z m-2 -94 c0 -18 -6 -26 -22
-28 -20 -3 -23 1 -23 28 0 27 3 31 23 28 16 -2 22 -10 22 -28z"/>
<path d="M512 148 l3 -93 50 0 c72 1 85 8 85 49 0 23 -6 36 -17 41 -17 6 -17
7 0 16 20 11 23 49 5 67 -7 7 -38 12 -70 12 l-59 0 3 -92z m88 56 c11 -12 11
-18 -2 -31 -20 -20 -38 -9 -38 23 0 27 21 32 40 8z m5 -94 c0 -18 -6 -26 -22
-28 -20 -3 -23 1 -23 28 0 27 3 31 23 28 16 -2 22 -10 22 -28z"/>
<path d="M720 225 c-18 -22 -24 -88 -10 -129 9 -29 18 -37 45 -42 43 -8 75 10
75 41 0 31 -23 33 -42 3 -23 -34 -38 -13 -38 52 0 65 15 86 38 52 8 -12 21
-22 28 -22 17 0 18 32 2 48 -17 17 -83 15 -98 -3z"/>
<path d="M1340 229 c0 -5 5 -7 10 -4 6 3 10 8 10 11 0 2 -4 4 -10 4 -5 0 -10
-5 -10 -11z"/>
<path d="M86 155 l-78 -53 71 -48 71 -47 71 47 72 48 -29 19 c-24 15 -32 16
-49 5 -11 -7 -26 -16 -33 -20 -9 -6 -10 -11 -2 -21 7 -9 6 -16 -4 -24 -18 -15
-42 -9 -80 22 l-28 23 66 43 c59 39 76 62 43 60 -7 0 -47 -24 -91 -54z"/>
<path d="M872 198 c-16 -16 -16 -110 0 -126 16 -16 70 -16 86 0 7 7 12 35 12
63 0 59 -12 75 -55 75 -17 0 -36 -5 -43 -12z m62 -24 c19 -50 -5 -119 -32 -92
-23 23 -12 108 13 108 7 0 16 -7 19 -16z"/>
<path d="M1000 135 c0 -59 3 -75 14 -75 11 0 16 15 18 53 l3 52 18 -52 c16
-44 23 -53 43 -53 23 0 24 2 24 75 0 59 -3 75 -14 75 -11 0 -16 -15 -18 -52
l-3 -53 -18 53 c-16 43 -23 52 -43 52 -23 0 -24 -2 -24 -75z"/>
<path d="M1156 197 c-27 -20 -16 -49 27 -72 54 -29 45 -55 -19 -55 -14 0 -22
-4 -19 -10 14 -23 101 -7 110 20 9 27 -3 45 -41 64 -40 19 -40 39 -1 44 15 2
27 8 27 13 0 14 -64 11 -84 -4z"/>
<path d="M1291 196 c-7 -9 -11 -38 -9 -73 l3 -58 38 -3 c21 -2 45 2 53 9 20
16 19 103 -2 123 -19 20 -68 21 -83 2z m64 -39 c4 -18 1 -45 -5 -61 -9 -23
-13 -26 -25 -16 -15 13 -21 90 -8 103 15 16 33 5 38 -26z"/>
<path d="M1410 135 c0 -68 2 -75 20 -75 18 0 20 7 20 65 0 52 3 65 15 65 21 0
30 -27 15 -45 -17 -20 7 -85 32 -85 17 0 17 2 3 30 -14 27 -14 32 0 54 13 19
14 29 5 45 -9 17 -20 21 -60 21 l-50 0 0 -75z"/>
<path d="M1569 194 c-15 -19 -17 -110 -2 -125 6 -6 28 -9 49 -7 32 2 40 7 42
26 4 28 -19 29 -37 1 -18 -29 -31 -9 -31 48 0 45 17 66 32 39 10 -17 38 -22
38 -7 0 35 -67 54 -91 25z"/>
<path d="M1680 130 c0 -73 2 -80 20 -80 18 0 20 7 20 80 0 73 -2 80 -20 80
-18 0 -20 -7 -20 -80z"/>
<path d="M1761 196 c-7 -8 -11 -38 -9 -72 3 -53 5 -58 31 -67 21 -7 34 -5 52
7 21 14 25 24 25 66 0 31 -6 54 -16 64 -19 20 -68 21 -83 2z m59 -60 c0 -55
-15 -81 -31 -55 -10 16 -12 93 -2 102 3 4 12 7 20 7 9 0 13 -16 13 -54z"/>
<path d="M1893 203 c-7 -2 -13 -17 -13 -32 0 -21 8 -31 35 -44 19 -9 35 -23
35 -32 0 -10 -10 -15 -35 -15 -19 0 -35 -4 -35 -10 0 -5 22 -10 50 -10 40 0
51 4 60 21 14 25 2 41 -40 59 -41 17 -41 50 0 50 17 0 30 5 30 10 0 10 -65 13
-87 3z"/>
<path d="M12 48 c-12 -12 -17 -38 -7 -38 15 0 54 33 49 41 -7 13 -28 11 -42
-3z"/>
</g>
</svg>
