<?xml version="1.0" standalone="no"?>
<!DOCTYPE svg PUBLIC "-//W3C//DTD SVG 20010904//EN"
 "http://www.w3.org/TR/2001/REC-SVG-20010904/DTD/svg10.dtd">
<svg version="1.0" xmlns="http://www.w3.org/2000/svg"
 width="720.000000pt" height="108.000000pt" viewBox="0 0 720.000000 108.000000"
 preserveAspectRatio="xMidYMid meet">
<metadata>
Created by potrace 1.16, written by Peter Selinger 2001-2019
</metadata>
<g transform="translate(0.000000,108.000000) scale(0.100000,-0.100000)"
fill="#000000" stroke="none">
<path d="M455 1069 c-16 -5 -34 -15 -40 -22 -5 -7 -18 -16 -27 -20 -10 -3 -18
-13 -18 -22 0 -10 -10 -15 -29 -15 -16 0 -31 -6 -35 -15 -3 -8 -12 -15 -21
-15 -8 0 -15 -9 -15 -20 0 -15 -7 -20 -30 -20 -16 0 -33 -6 -37 -13 -4 -8 -16
-16 -25 -20 -10 -3 -18 -13 -18 -22 0 -10 -10 -15 -31 -15 -22 0 -32 -5 -36
-20 -3 -11 -14 -20 -24 -20 -11 0 -19 -7 -19 -15 0 -9 -9 -15 -25 -15 -21 0
-24 -4 -23 -34 1 -28 7 -38 39 -56 39 -21 58 -40 41 -40 -5 0 -26 11 -46 25
-34 23 -36 23 -36 5 0 -11 5 -20 11 -20 6 0 17 -7 25 -15 9 -8 24 -15 35 -15
12 0 19 -7 19 -20 0 -11 7 -20 15 -20 8 0 24 -9 35 -20 11 -11 27 -20 35 -20
8 0 15 -4 15 -10 0 -5 -9 -10 -20 -10 -11 0 -29 -9 -40 -20 -11 -11 -24 -20
-30 -20 -5 0 -10 -9 -10 -20 0 -15 -7 -20 -28 -20 -41 0 -59 -28 -61 -94 -1
-53 0 -56 23 -56 14 0 25 -7 28 -18 6 -23 -1 -42 -16 -42 -24 0 -36 -51 -36
-145 l0 -95 40 0 c46 0 90 18 90 37 0 7 11 13 25 13 14 0 30 9 37 20 7 11 17
20 23 20 6 0 18 9 28 20 21 25 32 25 57 0 11 -11 31 -20 44 -20 16 0 27 -7 31
-20 3 -11 13 -20 21 -20 8 0 14 -5 14 -10 0 -45 239 -49 257 -4 2 6 13 14 24
17 10 3 19 12 19 21 0 11 9 16 29 16 16 0 31 6 35 15 3 8 12 15 21 15 8 0 15
9 15 20 0 15 7 20 30 20 16 0 33 6 37 13 4 8 16 16 26 20 9 3 17 13 17 22 0
10 10 15 31 15 22 0 32 5 36 20 3 11 14 20 24 20 11 0 19 6 19 14 0 9 12 16
33 18 31 3 32 4 35 56 3 43 0 53 -15 59 -10 4 -22 12 -26 20 -4 7 -21 13 -37
13 -23 0 -30 5 -30 20 0 11 -4 20 -10 20 -5 0 -19 9 -30 20 -11 11 -29 20 -40
20 -11 0 -20 5 -20 10 0 6 7 10 15 10 8 0 24 9 35 20 11 11 27 20 35 20 8 0
15 9 15 20 0 15 7 20 24 20 14 0 28 5 31 11 4 5 18 14 31 20 23 8 25 14 22 61
-3 51 -4 53 -34 56 -20 2 -34 10 -36 20 -6 24 1 42 17 42 8 0 17 9 20 20 3 11
13 20 21 20 11 0 14 20 14 100 l0 100 -27 0 c-15 0 -38 -10 -52 -22 l-26 -23
19 23 c16 19 17 22 3 22 -29 0 -67 -19 -67 -35 0 -10 -10 -15 -31 -15 -22 0
-32 -5 -36 -20 -3 -11 -13 -20 -23 -20 -10 0 -25 -7 -34 -15 -8 -8 -22 -15
-31 -15 -8 0 -18 7 -21 15 -4 9 -19 15 -35 15 -20 0 -29 5 -29 16 0 9 -9 18
-19 21 -11 3 -22 11 -25 18 -11 30 -142 45 -211 24z"/>
<path d="M1240 540 l0 -380 250 0 c196 0 251 3 257 13 4 8 16 16 26 20 9 3 17
13 17 22 0 29 19 15 22 -17 l3 -33 237 -3 c231 -2 237 -2 272 20 19 13 35 26
36 30 0 5 9 17 20 28 18 18 20 33 20 146 0 117 -1 126 -20 131 -27 7 -27 56 0
90 16 20 20 41 20 99 0 80 -6 104 -25 104 -8 0 -15 12 -17 27 -2 18 -13 32
-33 43 -16 8 -34 21 -40 28 -8 9 -64 12 -240 10 l-230 -3 -3 -37 c-2 -27 -7
-35 -18 -31 -8 3 -14 11 -14 19 0 7 -16 16 -35 20 -20 3 -35 12 -35 20 0 12
-41 14 -235 14 l-235 0 0 -380z"/>
<path d="M2610 905 c0 -8 -7 -15 -16 -15 -9 0 -18 -9 -21 -20 -3 -11 -12 -20
-20 -20 -8 0 -17 -9 -20 -20 -3 -11 -12 -20 -20 -20 -12 0 -13 -43 -11 -281 3
-255 5 -281 21 -290 9 -6 17 -17 17 -24 0 -8 7 -15 15 -15 7 0 18 -7 23 -16 5
-9 28 -18 53 -21 24 -3 52 -12 61 -21 20 -17 104 -28 142 -18 15 3 26 13 26
21 0 11 13 15 55 15 42 0 55 3 55 15 0 8 7 15 15 15 9 0 19 8 22 18 4 9 12 21
20 25 7 4 13 15 13 22 0 27 25 16 37 -16 8 -19 23 -34 42 -42 17 -6 31 -17 31
-24 0 -10 34 -13 145 -13 112 0 145 3 145 13 0 7 15 17 33 22 26 8 33 16 35
43 2 20 9 32 18 32 10 0 14 -14 14 -55 l0 -56 113 3 112 3 3 53 c3 54 22 74
22 23 0 -16 4 -41 10 -55 l10 -26 350 0 c298 0 351 2 356 15 3 8 14 17 25 20
12 4 19 16 19 30 0 18 4 23 15 19 8 -4 15 -11 15 -18 0 -6 16 -23 34 -38 35
-28 37 -28 180 -28 123 0 146 2 146 15 0 8 6 15 13 15 16 0 60 46 73 75 6 15
10 5 14 -40 l5 -60 110 0 110 0 3 67 c2 52 6 68 17 68 10 0 15 -11 15 -34 0
-18 7 -39 15 -46 8 -7 15 -23 15 -37 l0 -24 113 3 112 3 3 33 c2 17 5 32 8 32
3 0 19 -16 37 -35 l32 -35 150 0 c143 0 152 1 169 22 l19 22 8 -22 c8 -22 12
-23 131 -20 l123 3 5 37 c5 38 20 40 33 6 3 -10 13 -18 21 -18 7 0 16 -7 20
-15 4 -12 32 -15 158 -15 134 0 156 2 169 17 9 10 26 26 37 35 20 16 21 16 24
-15 l3 -32 209 -3 210 -2 33 35 33 35 0 104 c0 111 -10 156 -35 156 -8 0 -15
6 -15 14 0 15 -21 26 -50 26 -10 0 -20 7 -24 15 -3 9 -18 15 -35 15 -21 0 -32
6 -36 20 -5 15 -15 20 -41 20 -24 0 -34 5 -34 15 0 12 19 15 114 15 135 0 141
4 141 90 0 89 -2 90 -175 90 -119 0 -150 -3 -160 -15 -7 -8 -25 -15 -40 -15
-38 0 -60 -9 -60 -25 0 -29 -65 -24 -73 6 -4 13 -14 19 -35 19 -17 0 -32 6
-36 15 -4 12 -26 15 -106 15 -80 0 -102 -3 -106 -15 -4 -9 -19 -15 -39 -15
-25 0 -35 -5 -40 -20 -3 -11 -13 -20 -21 -20 -8 0 -14 -6 -14 -14 0 -8 -7 -16
-14 -19 -12 -5 -16 5 -18 46 l-3 52 -111 3 c-119 3 -144 -5 -144 -49 0 -25
-26 -25 -33 1 -4 14 -14 20 -35 20 -17 0 -32 6 -36 15 -4 12 -25 15 -95 15
-66 0 -93 -4 -105 -15 -8 -8 -21 -15 -28 -15 -22 0 -98 -86 -98 -110 0 -19 -2
-20 -15 -10 -8 7 -15 26 -15 42 0 21 -6 31 -20 35 -11 3 -20 14 -20 24 0 13
-7 19 -24 19 -13 0 -29 7 -36 15 -10 12 -44 15 -190 15 -201 0 -190 5 -190
-86 0 -30 -4 -54 -10 -54 -5 0 -10 14 -10 31 0 22 -5 32 -19 36 -11 3 -21 13
-24 24 -4 14 -14 19 -36 19 -21 0 -31 5 -31 15 0 9 9 15 24 15 33 0 48 22 44
67 l-3 38 -88 3 c-76 2 -88 1 -94 -15 -4 -10 -12 -22 -20 -26 -7 -4 -13 -21
-13 -37 0 -27 -3 -30 -34 -30 -18 0 -39 -7 -46 -15 -7 -8 -24 -15 -37 -15 -16
0 -27 -7 -30 -20 -3 -11 -12 -20 -19 -20 -8 0 -14 -7 -14 -15 0 -8 -9 -19 -20
-25 -17 -9 -20 -23 -22 -117 l-3 -108 -20 22 c-11 12 -32 24 -47 28 -15 4 -29
13 -32 21 -4 9 -22 14 -56 14 -38 0 -50 4 -50 15 0 9 -7 18 -15 21 -8 4 -15
12 -15 20 0 11 22 14 105 14 l106 0 -3 88 -3 87 -158 3 c-134 2 -158 0 -163
-13 -4 -9 -18 -15 -36 -15 -21 0 -31 -6 -35 -20 -8 -32 -31 -24 -35 13 l-3 32
-105 0 -105 0 -3 -57 c-2 -45 -6 -56 -17 -51 -9 3 -15 19 -15 40 0 26 -5 36
-20 40 -11 3 -20 12 -20 19 0 11 -25 14 -124 14 -138 0 -136 1 -136 -71 0 -28
-4 -39 -15 -39 -8 0 -15 9 -15 20 0 11 -6 20 -14 20 -7 0 -16 9 -19 20 -4 15
-14 20 -36 20 -19 0 -34 6 -37 15 -5 12 -27 15 -110 15 -84 0 -106 -3 -110
-15 -4 -9 -19 -15 -36 -15 -21 0 -31 -6 -35 -20 -3 -11 -12 -20 -20 -20 -8 0
-17 -9 -20 -20 -9 -34 -23 -22 -23 20 0 27 -7 47 -20 60 -11 11 -20 27 -20 35
0 8 -9 15 -20 15 -11 0 -20 6 -20 13 0 7 -13 23 -30 35 -27 20 -41 22 -180 22
-127 0 -150 -2 -150 -15z m182 -222 l3 -48 123 -3 122 -3 0 -89 0 -90 -107 0
c-60 0 -114 -4 -121 -9 -8 -4 -16 -27 -19 -50 -4 -25 -11 -41 -19 -41 -11 0
-14 36 -14 190 0 159 2 190 14 190 11 0 16 -14 18 -47z m538 -192 c0 -148 -1
-151 -51 -151 -18 0 -19 9 -19 145 l0 145 35 0 35 0 0 -139z m1489 103 c16
-27 21 -52 21 -110 0 -54 4 -80 15 -90 19 -20 19 -34 0 -34 -9 0 -20 10 -25
23 -8 20 -9 19 -9 -10 -1 -18 -5 -33 -11 -33 -5 0 -10 -7 -10 -16 0 -14 -3
-14 -15 -4 -21 18 -22 310 -1 310 8 0 23 -16 35 -36z m1681 6 c7 -16 16 -30
21 -30 16 0 11 -186 -5 -199 -8 -7 -17 -23 -20 -36 -4 -14 -11 -25 -16 -25 -6
0 -10 62 -10 160 0 88 4 160 9 160 5 0 14 -13 21 -30z m-690 -26 c9 -23 14
-24 95 -24 l85 0 0 -65 0 -64 -87 -3 -88 -3 -3 -37 c-2 -25 -8 -38 -18 -38
-11 0 -14 24 -14 136 0 134 8 158 30 98z m-1690 -109 c0 -8 7 -15 15 -15 8 0
19 -9 25 -20 6 -12 21 -20 35 -20 14 0 34 -9 45 -20 11 -11 27 -20 35 -20 20
0 57 -38 50 -50 -4 -6 -58 -10 -121 -10 l-114 0 0 85 c0 69 3 85 15 85 8 0 15
-7 15 -15z m2703 -36 c4 -14 14 -19 36 -19 20 0 31 -5 31 -14 0 -15 21 -26 51
-26 14 0 19 -7 19 -30 l0 -30 -105 0 -105 0 0 73 0 73 34 -4 c23 -3 36 -10 39
-23z"/>
</g>
</svg>
