<svg xmlns="http://www.w3.org/2000/svg" width="75" height="75" viewBox="0 0 75 75">
  <defs>
    <style>
      .cls-1 {
        fill: #163c67;
        fill-rule: evenodd;
      }
    </style>
  </defs>
  <path id="_1" data-name="1" class="cls-1" d="M211.544,28.18a2,2,0,0,0-1.55-.743h-7.6c-1.875-4.984-4.317-9.867-7.094-11.71-9.6-6.367-35.082-6.367-44.687,0-2.779,1.845-5.212,6.734-7.1,11.71h-7.6a1.986,1.986,0,0,0-1.549.743,2.014,2.014,0,0,0-.408,1.68l1.126,5.5a2,2,0,0,0,1.956,1.605H139.3a13.664,13.664,0,0,0-3.24,8.889,13.364,13.364,0,0,0,4.176,10c0.03,0.026.06,0.044,0.088,0.071v7.689a3.012,3.012,0,0,0,3,3.022h7.009a3.012,3.012,0,0,0,3-3.022v-3.09h39.262v3.09a3.013,3.013,0,0,0,3,3.022h7.008a3.016,3.016,0,0,0,3-3.022V56.071a13.9,13.9,0,0,0,.875-19.114h2.4a2,2,0,0,0,1.957-1.607l1.127-5.493A2.044,2.044,0,0,0,211.544,28.18Zm-57.637-7.407c7.656-5.078,30.442-5.078,38.1,0,1.487,0.983,3.4,4.957,5.153,9.824h-48.4C150.507,25.733,152.42,21.76,153.907,20.773Zm-8.968,25.834a5.9,5.9,0,1,1,5.9,5.944A5.921,5.921,0,0,1,144.939,46.608Zm50.213,5.944a5.943,5.943,0,1,1,5.9-5.944A5.923,5.923,0,0,1,195.152,52.552ZM47.408,34.909V50.148L68,60.524a1.952,1.952,0,0,0,2.824-1.759V37.859ZM41.8,34.2A1.956,1.956,0,0,0,39.6,36.153V45a1.955,1.955,0,0,0,1.079,1.759l2.824,1.423V34.417ZM35.7,45V36.153A5.874,5.874,0,0,1,42.28,30.3l28.262,3.56A33.7,33.7,0,0,0,56.335,11.723,34.506,34.506,0,0,0,27.87,7.148C14.9,10.733,4.215,25.353,4.215,39.413V48.83a5.941,5.941,0,0,0,3.493,5.4l43.1,17.9a11.214,11.214,0,0,0,14.785-6.347c0.207-.523.426-1.175,0.64-1.755L38.935,50.276A5.9,5.9,0,0,1,35.7,45ZM19.957,49.4a7.866,7.866,0,1,1,7.806-7.866A7.844,7.844,0,0,1,19.957,49.4Zm-217.033-4.749V29.965L-230.035,2.716l-32.959,27.249V44.648l9.416-7.786V61.144h-6.768v8.9h60.622v-8.9H-206.2V37.106Zm-41.788,6.581a8.873,8.873,0,0,1,8.829-8.9,8.872,8.872,0,0,1,8.828,8.9v9.916h-17.657V51.228ZM-87.2,5.65A5.964,5.964,0,0,1-80.939,0a5.976,5.976,0,0,1,5.611,6.313,5.964,5.964,0,0,1-6.265,5.655A5.976,5.976,0,0,1-87.2,5.65ZM-118.61,9.588a6.066,6.066,0,0,1,6.623-5.466,6.088,6.088,0,0,1,5.424,6.673,6.066,6.066,0,0,1-6.623,5.466A6.088,6.088,0,0,1-118.61,9.588Zm55.749,29.289c-0.047-.13-4.73-13.04-6.792-19.087-1.331-3.9-3.562-5.88-6.631-5.88h-9.937c-3.07,0-5.3,1.978-6.631,5.88-1.04,3.048-2.745,7.84-4.187,11.86-1.411-3.937-3.053-8.553-4.062-11.513-1.087-3.187-2.779-5.082-5.041-5.656a7.722,7.722,0,0,1-6.453,3.5,7.721,7.721,0,0,1-6.461-3.514c-2.291.556-4,2.456-5.1,5.669-1.832,5.371-5.744,16.189-6.587,18.518a4.426,4.426,0,0,0-3.931,4.407v3.816a1.409,1.409,0,0,0,1.4,1.414,1.409,1.409,0,0,0,1.4-1.414V43.061a1.6,1.6,0,0,1,1.167-1.544,2.835,2.835,0,0,0,2.009,1.4c0.011,0.127,0,8.725.007,28.359a1.409,1.409,0,0,0,1.4,1.414,1.408,1.408,0,0,0,1.4-1.414V43.061a4.453,4.453,0,0,0-.151-1.15,2.846,2.846,0,0,0,.476-0.835c0.04-.109,5.664-15.834,5.664-15.834l-4.048,21.386a1.6,1.6,0,0,0,1.554,1.9h2.175V69.36a3.433,3.433,0,0,0,3.42,3.446,3.433,3.433,0,0,0,3.42-3.446V48.528h1.476V69.36a3.434,3.434,0,0,0,3.42,3.446,3.433,3.433,0,0,0,3.42-3.446V48.528h2.175a1.593,1.593,0,0,0,1.554-1.9l-4.048-21.386,5.664,15.833a2.844,2.844,0,0,0,3.655,1.711,2.992,2.992,0,0,0,1.793-1.925c0.035-.1,4.9-13.653,4.9-13.653L-92.676,46.48a1.6,1.6,0,0,0,1.57,1.881h2.227V69.325a3.455,3.455,0,0,0,3.442,3.468A3.454,3.454,0,0,0-82,69.325V48.361h1.486V69.325a3.455,3.455,0,0,0,3.442,3.468,3.454,3.454,0,0,0,3.441-3.468V48.361H-71.4a1.6,1.6,0,0,0,1.57-1.881l-3.314-19.272s4.861,13.556,4.9,13.653a2.862,2.862,0,0,0,3.678,1.722,2.9,2.9,0,0,0,1.709-3.707h0Z"/>
</svg>
