<svg xmlns="http://www.w3.org/2000/svg" width="75" height="75" viewBox="0 0 75 75">
  <defs>
    <style>
      .cls-1 {
        fill: #163c67;
        fill-rule: evenodd;
      }
    </style>
  </defs>
  <path id="_1" data-name="1" class="cls-1" d="M73.094,29.814a1.849,1.849,0,0,0-1.431-.686h-7.02c-1.732-4.6-3.989-9.115-6.554-10.818-8.874-5.883-32.411-5.883-41.285,0-2.567,1.7-4.815,6.222-6.556,10.818H3.228a1.836,1.836,0,0,0-1.431.686,1.862,1.862,0,0,0-.377,1.552l1.04,5.077a1.849,1.849,0,0,0,1.808,1.483h2.08a12.623,12.623,0,0,0-2.994,8.212,12.348,12.348,0,0,0,3.858,9.238c0.028,0.024.055,0.041,0.081,0.065v7.1a2.783,2.783,0,0,0,2.77,2.792h6.475a2.783,2.783,0,0,0,2.77-2.792V59.69H55.581v2.855a2.783,2.783,0,0,0,2.77,2.792h6.475a2.786,2.786,0,0,0,2.77-2.792V55.581a12.839,12.839,0,0,0,.809-17.659h2.218a1.843,1.843,0,0,0,1.808-1.485l1.041-5.075A1.886,1.886,0,0,0,73.094,29.814ZM19.846,22.971c7.073-4.692,28.125-4.692,35.195,0,1.374,0.908,3.141,4.58,4.761,9.076H15.088C16.7,27.553,18.471,23.883,19.846,22.971ZM11.561,46.838a5.45,5.45,0,1,1,5.45,5.492A5.47,5.47,0,0,1,11.561,46.838Zm46.39,5.492a5.491,5.491,0,1,1,5.45-5.492A5.472,5.472,0,0,1,57.951,52.33Zm-136.5-16.3V50.109l19.026,9.586A1.8,1.8,0,0,0-56.91,58.07V38.756Zm-5.185-.653a1.807,1.807,0,0,0-2.026,1.8v8.172a1.806,1.806,0,0,0,1,1.625l2.609,1.315V35.576Zm-5.632,9.976V37.18a5.427,5.427,0,0,1,6.08-5.408l26.11,3.289A31.136,31.136,0,0,0-70.3,14.609a31.879,31.879,0,0,0-26.3-4.226C-108.579,13.7-118.45,27.2-118.45,40.191v8.7a5.488,5.488,0,0,0,3.227,4.987l39.815,16.539a10.36,10.36,0,0,0,13.659-5.864c0.191-.483.393-1.086,0.591-1.622L-86.373,50.227A5.454,5.454,0,0,1-89.363,45.353Zm-14.544,4.062a7.246,7.246,0,0,1-7.211-7.267,7.246,7.246,0,0,1,7.211-7.267,7.247,7.247,0,0,1,7.212,7.267A7.247,7.247,0,0,1-103.907,49.415Zm-200.51-4.388V31.463l-30.45-25.175-30.45,25.175V45.028l8.7-7.193V60.268h-6.253v8.219h56.007V60.268h-5.982V38.06Zm-38.606,6.08a8.2,8.2,0,0,1,8.156-8.219,8.2,8.2,0,0,1,8.156,8.219v9.161h-16.312V51.107ZM-202.909,9a5.51,5.51,0,0,1,5.788-5.224,5.521,5.521,0,0,1,5.184,5.832,5.51,5.51,0,0,1-5.788,5.224A5.521,5.521,0,0,1-202.909,9Zm-29.016,3.637a5.6,5.6,0,0,1,6.119-5.05,5.624,5.624,0,0,1,5.011,6.165,5.6,5.6,0,0,1-6.118,5.05A5.625,5.625,0,0,1-231.925,12.637ZM-180.42,39.7c-0.043-.12-4.37-12.048-6.275-17.634-1.229-3.6-3.29-5.433-6.126-5.433H-202c-2.836,0-4.9,1.828-6.126,5.433-0.96,2.816-2.536,7.243-3.868,10.957-1.3-3.637-2.821-7.9-3.754-10.636-1-2.945-2.567-4.695-4.657-5.225a7.133,7.133,0,0,1-5.961,3.234,7.133,7.133,0,0,1-5.969-3.247c-2.117.514-3.7,2.269-4.71,5.238-1.693,4.962-5.306,14.956-6.086,17.108a4.089,4.089,0,0,0-3.632,4.072v3.525a1.3,1.3,0,0,0,1.3,1.306,1.3,1.3,0,0,0,1.3-1.306V43.562a1.482,1.482,0,0,1,1.079-1.427,2.616,2.616,0,0,0,1.855,1.3c0.01,0.118,0,8.061.007,26.2a1.3,1.3,0,0,0,1.3,1.306,1.3,1.3,0,0,0,1.3-1.306V43.562a4.094,4.094,0,0,0-.14-1.063,2.643,2.643,0,0,0,.441-0.772L-233.1,27.1l-3.74,19.758a1.474,1.474,0,0,0,1.436,1.756h2.009V67.858a3.172,3.172,0,0,0,3.16,3.184,3.172,3.172,0,0,0,3.16-3.184V48.613h1.364V67.858a3.171,3.171,0,0,0,3.159,3.184,3.172,3.172,0,0,0,3.16-3.184V48.613h2.009a1.472,1.472,0,0,0,1.436-1.756l-3.74-19.758s5.2,14.527,5.233,14.628a2.626,2.626,0,0,0,3.376,1.581,2.762,2.762,0,0,0,1.657-1.778c0.033-.09,4.523-12.614,4.523-12.614l-3.061,17.8a1.483,1.483,0,0,0,1.45,1.738h2.057V67.826a3.192,3.192,0,0,0,3.18,3.2,3.191,3.191,0,0,0,3.179-3.2V48.458h1.373V67.826a3.192,3.192,0,0,0,3.18,3.2,3.191,3.191,0,0,0,3.179-3.2V48.458h2.057a1.481,1.481,0,0,0,1.451-1.738l-3.062-17.8,4.523,12.614A2.644,2.644,0,0,0-182,43.12,2.675,2.675,0,0,0-180.42,39.7h0Z"/>
</svg>
