<svg xmlns="http://www.w3.org/2000/svg" width="75" height="75" viewBox="0 0 75 75">
  <defs>
    <style>
      .cls-1 {
        fill: #163c67;
        fill-rule: evenodd;
      }
    </style>
  </defs>
  <path id="_1" data-name="1" class="cls-1" d="M478.825,29.18a2,2,0,0,0-1.548-.743h-7.594c-1.875-4.984-4.316-9.867-7.091-11.71-9.6-6.367-35.064-6.367-44.664,0-2.777,1.845-5.208,6.734-7.092,11.71h-7.6a1.986,1.986,0,0,0-1.548.743,2.018,2.018,0,0,0-.408,1.68l1.125,5.5a2,2,0,0,0,1.956,1.605h2.25a13.668,13.668,0,0,0-3.239,8.889,13.37,13.37,0,0,0,4.174,10c0.03,0.026.06,0.044,0.088,0.071v7.689a3.011,3.011,0,0,0,3,3.022h7a3.011,3.011,0,0,0,3-3.022v-3.09h39.242v3.09a3.011,3.011,0,0,0,3,3.022h7a3.014,3.014,0,0,0,3-3.022V57.071a13.9,13.9,0,0,0,.875-19.114h2.4a2,2,0,0,0,1.956-1.607l1.127-5.493A2.041,2.041,0,0,0,478.825,29.18Zm-57.606-7.407c7.652-5.078,30.426-5.078,38.074,0,1.487,0.983,3.4,4.957,5.151,9.824H416.072C417.82,26.733,419.732,22.76,421.219,21.773Zm-8.963,25.834a5.9,5.9,0,1,1,5.9,5.944A5.919,5.919,0,0,1,412.256,47.608Zm50.186,5.944a5.943,5.943,0,1,1,5.9-5.944A5.921,5.921,0,0,1,462.442,53.552ZM314.776,35.909V51.148l20.583,10.376a1.951,1.951,0,0,0,2.823-1.759V38.859Zm-5.61-.707a1.955,1.955,0,0,0-2.192,1.951V46a1.955,1.955,0,0,0,1.078,1.759l2.823,1.423V35.417ZM303.073,46V37.153A5.872,5.872,0,0,1,309.65,31.3L337.9,34.86a33.7,33.7,0,0,0-14.2-22.137,34.473,34.473,0,0,0-28.45-4.575c-12.964,3.585-23.643,18.2-23.643,32.264V49.83a5.941,5.941,0,0,0,3.492,5.4l43.074,17.9a11.206,11.206,0,0,0,14.777-6.347c0.206-.523.425-1.175,0.639-1.755l-27.28-13.752A5.9,5.9,0,0,1,303.073,46Zm-15.734,4.4a7.866,7.866,0,1,1,7.8-7.866A7.842,7.842,0,0,1,287.339,50.4ZM70.42,45.647V30.965L37.479,3.716,4.537,30.965V45.648l9.412-7.786V62.144H7.184v8.9h60.59v-8.9H61.3V38.106ZM28.655,52.228a8.824,8.824,0,1,1,17.647,0v9.916H28.655V52.228ZM180.235,6.65a5.944,5.944,0,1,1,5.608,6.313A5.962,5.962,0,0,1,180.235,6.65Zm-31.39,3.937a6.051,6.051,0,1,1,5.421,6.674A6.063,6.063,0,0,1,148.845,10.588Zm55.72,29.289c-0.047-.13-4.728-13.04-6.789-19.087-1.33-3.9-3.56-5.88-6.628-5.88h-9.931c-3.068,0-5.3,1.978-6.628,5.88-1.039,3.048-2.743,7.84-4.185,11.86-1.41-3.937-3.051-8.553-4.06-11.513-1.086-3.187-2.778-5.082-5.039-5.656a7.691,7.691,0,0,1-12.907-.014c-2.289.556-4,2.456-5.095,5.669-1.831,5.371-5.74,16.189-6.583,18.518a4.425,4.425,0,0,0-3.93,4.407v3.816a1.4,1.4,0,1,0,2.805,0V44.061a1.6,1.6,0,0,1,1.167-1.544,2.833,2.833,0,0,0,2.008,1.4c0.011,0.127,0,8.725.007,28.359a1.4,1.4,0,1,0,2.805,0V44.061a4.453,4.453,0,0,0-.151-1.15,2.846,2.846,0,0,0,.476-0.835c0.04-.109,5.661-15.834,5.661-15.834l-4.046,21.386a1.6,1.6,0,0,0,1.554,1.9h2.173V70.36a3.419,3.419,0,1,0,6.837,0V49.528h1.475V70.36a3.418,3.418,0,1,0,6.836,0V49.528h2.174a1.593,1.593,0,0,0,1.553-1.9l-4.045-21.386,5.66,15.833a2.843,2.843,0,0,0,3.654,1.711,2.994,2.994,0,0,0,1.792-1.925l4.893-13.653L174.766,47.48a1.6,1.6,0,0,0,1.569,1.881h2.226V70.325a3.44,3.44,0,1,0,6.879,0V49.361h1.485V70.325a3.44,3.44,0,1,0,6.88,0V49.361h2.225A1.6,1.6,0,0,0,197.6,47.48l-3.312-19.272,4.893,13.653a2.86,2.86,0,0,0,3.677,1.722,2.9,2.9,0,0,0,1.708-3.707h0Z"/>
</svg>
