<svg xmlns="http://www.w3.org/2000/svg" width="75" height="75" viewBox="0 0 75 75">
  <defs>
    <style>
      .cls-1 {
        fill: #163c67;
        fill-rule: evenodd;
      }
    </style>
  </defs>
  <path id="_1" data-name="1" class="cls-1" d="M347.544,29.18a2,2,0,0,0-1.55-.743h-7.6c-1.875-4.984-4.317-9.867-7.094-11.71-9.605-6.367-35.082-6.367-44.687,0-2.779,1.845-5.212,6.734-7.1,11.71h-7.6a1.986,1.986,0,0,0-1.549.743,2.014,2.014,0,0,0-.408,1.68l1.126,5.5a2,2,0,0,0,1.956,1.605H275.3a13.664,13.664,0,0,0-3.24,8.889,13.364,13.364,0,0,0,4.176,10c0.03,0.026.06,0.044,0.088,0.071v7.689a3.012,3.012,0,0,0,3,3.022h7.009a3.012,3.012,0,0,0,3-3.022v-3.09h39.262v3.09a3.013,3.013,0,0,0,3,3.022h7.008a3.016,3.016,0,0,0,3-3.022V57.071a13.9,13.9,0,0,0,.875-19.114h2.4a2,2,0,0,0,1.957-1.607l1.127-5.493A2.044,2.044,0,0,0,347.544,29.18Zm-57.637-7.407c7.656-5.078,30.442-5.078,38.1,0,1.487,0.983,3.4,4.957,5.153,9.824h-48.4C286.507,26.733,288.42,22.76,289.907,21.773Zm-8.968,25.834a5.9,5.9,0,1,1,5.9,5.944A5.921,5.921,0,0,1,280.939,47.608Zm50.213,5.944a5.943,5.943,0,1,1,5.9-5.944A5.923,5.923,0,0,1,331.152,53.552ZM183.408,35.909V51.148L204,61.524a1.952,1.952,0,0,0,2.824-1.759V38.859ZM177.8,35.2a1.956,1.956,0,0,0-2.194,1.951V46a1.955,1.955,0,0,0,1.079,1.759l2.824,1.423V35.417ZM171.7,46V37.153A5.874,5.874,0,0,1,178.28,31.3l28.261,3.56a33.7,33.7,0,0,0-14.206-22.137A34.507,34.507,0,0,0,163.87,8.148c-12.971,3.585-23.655,18.2-23.655,32.264V49.83a5.941,5.941,0,0,0,3.493,5.4l43.1,17.9a11.214,11.214,0,0,0,14.785-6.347c0.207-.523.426-1.175,0.64-1.755L174.935,51.276A5.9,5.9,0,0,1,171.7,46Zm-15.742,4.4a7.866,7.866,0,1,1,7.806-7.866A7.844,7.844,0,0,1,155.957,50.4ZM-61.076,45.647V30.965L-94.035,3.716l-32.959,27.249V45.648l9.416-7.786V62.144h-6.768v8.9h60.622v-8.9H-70.2V38.106Zm-41.788,6.581a8.873,8.873,0,0,1,8.829-8.9,8.872,8.872,0,0,1,8.828,8.9v9.916h-17.657V52.228ZM48.8,6.65a5.947,5.947,0,1,1,5.611,6.313A5.964,5.964,0,0,1,48.8,6.65ZM17.39,10.588a6.054,6.054,0,1,1,5.424,6.674A6.066,6.066,0,0,1,17.39,10.588ZM73.139,39.877c-0.047-.13-4.73-13.04-6.792-19.087-1.331-3.9-3.562-5.88-6.631-5.88H49.779c-3.07,0-5.3,1.978-6.631,5.88-1.04,3.048-2.745,7.84-4.187,11.86C37.549,28.712,35.907,24.1,34.9,21.136c-1.087-3.187-2.779-5.082-5.041-5.656a7.7,7.7,0,0,1-12.914-.014c-2.291.556-4,2.456-5.1,5.669C10.013,26.507,6.1,37.325,5.258,39.654a4.426,4.426,0,0,0-3.931,4.407v3.816a1.4,1.4,0,1,0,2.807,0V44.061A1.6,1.6,0,0,1,5.3,42.517a2.834,2.834,0,0,0,2.009,1.4c0.011,0.127,0,8.725.007,28.359a1.4,1.4,0,1,0,2.807,0V44.061a4.457,4.457,0,0,0-.151-1.15,2.863,2.863,0,0,0,.477-0.835c0.04-.109,5.664-15.834,5.664-15.834L12.064,47.628a1.6,1.6,0,0,0,1.554,1.9h2.175V70.36a3.42,3.42,0,1,0,6.84,0V49.528H24.11V70.36a3.42,3.42,0,1,0,6.84,0V49.528h2.175a1.593,1.593,0,0,0,1.554-1.9L30.63,26.242l5.664,15.833a2.844,2.844,0,0,0,3.655,1.711,2.992,2.992,0,0,0,1.793-1.925c0.036-.1,4.9-13.653,4.9-13.653L43.324,47.48a1.6,1.6,0,0,0,1.57,1.881h2.227V70.325a3.442,3.442,0,1,0,6.883,0V49.361H55.49V70.325a3.442,3.442,0,1,0,6.883,0V49.361H64.6a1.6,1.6,0,0,0,1.57-1.881L62.855,28.208s4.861,13.556,4.9,13.653a2.862,2.862,0,0,0,3.678,1.722,2.9,2.9,0,0,0,1.709-3.707h0Z"/>
</svg>
