<svg xmlns="http://www.w3.org/2000/svg" width="24" height="24" viewBox="0 0 24 24"><g data-name="Grupo 5313"><path data-name="Retângulo 3534" fill="none" d="M0 0h24v24H0z"/><g data-name="Grupo 5304"><g data-name="Grupo 5308" fill="#fff"><path data-name="Caminho 5468" d="M15.502 7.294a.765.765 0 1 0 .765.765.765.765 0 0 0-.765-.765"/><path data-name="Caminho 5469" d="M12.103 8.273a3.212 3.212 0 1 0 3.212 3.212 3.215 3.215 0 0 0-3.212-3.212m0 5.269a2.057 2.057 0 1 1 2.057-2.057 2.06 2.06 0 0 1-2.057 2.057"/><path data-name="Caminho 5470" d="M14.653 18.006H9.445a3.922 3.922 0 0 1-3.917-3.918V8.88a3.921 3.921 0 0 1 3.917-3.912h5.207a3.922 3.922 0 0 1 3.918 3.917v5.203a3.922 3.922 0 0 1-3.918 3.917M9.445 6.19a2.693 2.693 0 0 0-2.691 2.691v5.207a2.694 2.694 0 0 0 2.691 2.691h5.207a2.694 2.694 0 0 0 2.691-2.691V8.88a2.694 2.694 0 0 0-2.691-2.691z"/></g></g></g></svg>