<svg xmlns="http://www.w3.org/2000/svg" width="14" height="14" viewBox="0 0 14 14"><defs><clipPath id="a"><path data-name="Retângulo 13674" fill="none" d="M0 0h14v14H0z"/></clipPath></defs><g data-name="Grupo 9960"><g data-name="Grupo 9959" clip-path="url(#a)"><path data-name="Caminho 6550" d="M11.314-.292H2.977A2.978 2.978 0 0 0 0 2.685v8.337a2.978 2.978 0 0 0 2.977 2.977h8.337a2.977 2.977 0 0 0 2.977-2.977V2.685a2.977 2.977 0 0 0-2.977-2.977m-6.55 11.314H2.977v-6.55h1.787zm-.893-7.305a1.05 1.05 0 1 1 1.042-1.05 1.047 1.047 0 0 1-1.042 1.05m8.038 7.305h-1.786V7.685c0-2.006-2.382-1.854-2.382 0v3.337H5.955v-6.55h1.786v1.051a2.265 2.265 0 0 1 4.169 1.474z" fill="#fff"/></g></g></svg>