<svg xmlns="http://www.w3.org/2000/svg" width="44" height="45" viewBox="0 0 44 45">
  <defs>
    <style>
      .cls-1 {
        fill: #ffdf2e;
        fill-rule: evenodd;
      }
    </style>
  </defs>
  <path id="_1" data-name="1" class="cls-1" d="M37.38,6.623A21.177,21.177,0,0,0,22.106.121C10.2,0.121.517,10.066,0.512,22.288A22.582,22.582,0,0,0,3.394,33.372L0.33,44.859l11.447-3.083a21.13,21.13,0,0,0,10.319,2.7h0.01c11.9,0,21.588-9.946,21.593-22.168A22.335,22.335,0,0,0,37.38,6.623ZM22.106,40.73H22.1a17.579,17.579,0,0,1-9.135-2.569l-0.655-.4-6.793,1.83,1.814-6.8L6.9,32.1A18.739,18.739,0,0,1,4.158,22.29,18.217,18.217,0,0,1,22.112,3.866,17.6,17.6,0,0,1,34.8,9.269,18.565,18.565,0,0,1,40.052,22.3,18.217,18.217,0,0,1,22.106,40.73Zm9.844-13.8c-0.539-.277-3.193-1.617-3.687-1.8a0.828,0.828,0,0,0-1.213.277c-0.36.554-1.395,1.8-1.709,2.172a0.812,0.812,0,0,1-1.169.139,14.667,14.667,0,0,1-4.339-2.75,16.661,16.661,0,0,1-3-3.837A0.855,0.855,0,0,1,17.068,20,15.754,15.754,0,0,0,18.417,18.1a1.045,1.045,0,0,0-.045-0.971c-0.134-.277-1.214-3-1.663-4.113-0.439-1.08-.883-0.934-1.214-0.951-0.314-.016-0.674-0.019-1.034-0.019a1.959,1.959,0,0,0-1.439.694,6.285,6.285,0,0,0-1.888,4.621,10.925,10.925,0,0,0,2.2,5.73c0.27,0.37,3.8,5.965,9.217,8.364a30.43,30.43,0,0,0,3.076,1.167,7.208,7.208,0,0,0,3.4.219c1.037-.159,3.191-1.34,3.642-2.634a4.748,4.748,0,0,0,.313-2.634A2.713,2.713,0,0,0,31.949,26.93Z"/>
</svg>
