<svg data-name="Grupo 5302" xmlns="http://www.w3.org/2000/svg" width="24" height="24" viewBox="0 0 24 24"><defs><clipPath id="a"><path data-name="Retângulo 3486" fill="none" d="M0 0h24v24H0z"/></clipPath></defs><g data-name="Grupo 5079" clip-path="url(#a)"><path data-name="Caminho 5463" d="M18.424 10.289a2.882 2.882 0 0 0-2.881-2.881H8.175a2.882 2.882 0 0 0-2.885 2.881v3.429a2.882 2.882 0 0 0 2.882 2.881h7.368a2.882 2.882 0 0 0 2.881-2.881zm-4.334 1.969l-3.3 1.631c-.13.07-.57-.024-.57-.171v-3.352c0-.149.444-.243.573-.169l3.163 1.721c.133.075.272.267.138.34" fill="#fff"/></g></svg>